<?xml version="1.0" encoding="utf-8"?>
<!-- Generator: Adobe Illustrator 23.0.3, SVG Export Plug-In . SVG Version: 6.00 Build 0)  -->
<svg version="1.1" id="Layer_1" xmlns="http://www.w3.org/2000/svg" xmlns:xlink="http://www.w3.org/1999/xlink" x="0px" y="0px"
	 viewBox="0 0 1200 1200" enable-background="new 0 0 1200 1200" xml:space="preserve">
<g>
	<g id="XMLID_16_">
		<g>
			<path fill="#5A293F" d="M919.772,369.725l-0.187,0.327c-18.151-9.379-37.283-16.005-56.834-20.064
				c-21.371-4.433-43.209-5.879-64.813-4.48l-0.047-0.653c0-54.641-22.164-104.102-57.954-139.938
				c-17.918-17.918-39.242-32.383-62.9-42.415c-23.704-9.986-49.695-15.538-77.038-15.538c-54.641,0-104.102,22.164-139.938,57.954
				c-35.789,35.836-57.954,85.297-57.954,139.938l-0.047,0.607c-21.371-1.307-42.975,0.14-64.066,4.526
				c-19.784,4.106-39.102,10.779-57.487,20.298l-0.28-0.56c0-88.284,35.789-168.215,93.65-226.075C431.785,85.789,511.716,50,600,50
				c44.142,0,86.184,8.959,124.446,25.104c38.263,16.192,72.745,39.616,101.676,68.546
				C883.982,201.51,919.772,281.441,919.772,369.725z"/>
			<path fill="#5A293F" d="M665.093,817.77l26.27,108.581H600h-91.363l26.27-108.581l26.317-108.628
				c-15.725-7.233-28.884-18.665-38.076-32.943c-9.239-14.278-14.512-31.357-14.512-49.788c0-25.197,10.219-48.061,26.784-64.58
				c16.518-16.518,39.336-26.737,64.58-26.737s48.061,10.219,64.58,26.737c16.565,16.518,26.784,39.382,26.784,64.58
				c0,18.058-5.553,35.043-14.885,49.368c-9.332,14.325-22.491,25.944-37.703,33.363L665.093,817.77z"/>
			<path fill="#AC818A" d="M919.585,370.052c77.318,39.896,137.185,129.626,137.185,285.289
				c0,156.27-114.181,279.923-228.362,364.52C714.181,1104.458,600,1150,600,1150s-114.181-45.542-228.408-130.139
				C257.411,935.263,143.23,811.61,143.23,655.341c0-155.383,59.913-245.067,137.278-285.056
				c18.385-9.519,37.703-16.192,57.487-20.298c21.091-4.386,42.695-5.833,64.066-4.526c82.964,4.806,162.662,50.115,198.685,120.76
				c35.883-70.319,114.881-115.581,197.192-120.714c21.604-1.4,43.442,0.047,64.813,4.48
				C882.303,354.047,901.434,360.673,919.585,370.052z M691.363,926.351l-26.27-108.581l-26.317-108.628
				c15.212-7.419,28.37-19.038,37.703-33.363c9.332-14.325,14.885-31.31,14.885-49.368c0-25.197-10.219-48.061-26.784-64.58
				c-16.518-16.518-39.336-26.737-64.58-26.737s-48.061,10.219-64.58,26.737c-16.565,16.518-26.784,39.382-26.784,64.58
				c0,18.431,5.273,35.509,14.512,49.788c9.192,14.278,22.351,25.711,38.076,32.943L534.907,817.77l-26.27,108.581H600H691.363z"/>
		</g>
	</g>
</g>
</svg>
